<svg xmlns="http://www.w3.org/2000/svg" width="1116.998" height="625.058" viewBox="0 0 1116.998 625.058">
  <g id="Group_1694" data-name="Group 1694" transform="translate(-168.353 -144.871)">
    <g id="Group_1695" data-name="Group 1695">
      <path id="Path_13733" data-name="Path 13733" d="M293.362,162.542a30.188,30.188,0,0,1,25.949,6.006c12.528,10.025,19.407,30.232,15.077,46.368S316.3,239.461,316.3,239.461Z" transform="translate(325.086 131.224)" fill="#c2371b"/>
      <path id="Path_13734" data-name="Path 13734" d="M83.574,367.159c-3.7,8.989-5.466,22.2-4.584,36.885s.586,22.611-3.818,37.293S63.133,482.5,63.133,482.5H196.4V327.694s-36.658-8.223-63.674,5.873S83.574,367.159,83.574,367.159Z" transform="translate(105.22 287.427)" fill="#08668d"/>
      <path id="Path_13735" data-name="Path 13735" d="M124.148,333.566C97.132,347.662,75,367.159,75,367.159a56.28,56.28,0,0,0-2.878,9.714c.27.344,11.067,13.992,35.344,20.187,24.588,6.274,30.005,4.19,30.005,4.19L150.8,364.876l2.917,39.031s17.8,3.476,34.1,3.722V327.694S151.164,319.471,124.148,333.566Z" transform="translate(113.801 287.427)" fill="#0b597f"/>
      <path id="Path_13736" data-name="Path 13736" d="M153.181,100.409s24.783-11.894,41.641,11.325,4.041,52.8-14.989,55.954S153.181,100.409,153.181,100.409Z" transform="translate(191.215 69.74)" fill="#19313a"/>
      <path id="Path_13737" data-name="Path 13737" d="M224.358,133.244c2.721,9.331,6.221,36.846,3.5,59.639s-19.5,54.4-29.215,60.618-25.843-1.857-25.843-1.857a91.118,91.118,0,0,0-3.181,10.907c-1.165,5.662,4.887,13.255,13.634,25.223a110.922,110.922,0,0,1,13.634,25.677s-71.293-17.677-84.123-60.059c0,0,8.166-12.055,12.054-32.662,0,0-19.442-19.829-22.164-41.6s4.667-47.438,28-67.267S204.526,87.362,224.358,133.244Z" transform="translate(142.45 69.872)" fill="#ffdbc2"/>
      <path id="Path_13738" data-name="Path 13738" d="M123.709,192.746c6.884,8.135,27.46,15.841,32.84,17.759,1.108-4.414,2.663-8.663,2.663-8.663-9.362-3.282-28.533-14.621-33.411-23.636s-3.941-28.557-3.941-28.557-2.61,2.909-4.539,12.248S115.763,183.358,123.709,192.746Z" transform="translate(156.038 119.674)" fill="#edc1a4"/>
      <path id="Path_13739" data-name="Path 13739" d="M128.08,238.178a46.329,46.329,0,0,0,7.509-12.232,68.281,68.281,0,0,0,4.539-15.5c-5.054,1.556-17.888-2.782-20.729-14.688-3.067-12.866-.874-19.5,4.182-23.389s12.838-4.2,18.273,3.951c4.657,6.983,3.282,12.68,6.141,13.845s12.811-8.6,13.589-26.1c0,0,14.776,10.111,28,0s8.553-23.718,8.553-23.718a20.455,20.455,0,0,0,16.909,10.887c12.254.778,14-7,14-7s3.877-15.583-11.288-26.86c0,0,1.425-22.9-25.086-29.485-28.183-7.007-52.458,6.189-57.019,25.9,0,0-21.769-2.776-31.264,14.137C93,148.207,97.174,166.869,103.2,189.352c4.729,17.658,11.8,34.468,15.417,40.816C123.742,239.165,128.08,238.178,128.08,238.178Z" transform="translate(137.768 58.88)" fill="#19313a"/>
      <path id="Path_13740" data-name="Path 13740" d="M145.418,172.981c-3.1,6.115-19.673,12.084-30.693,19.182S77.957,224.354,85.415,274.8c7.488,50.656,18.179,140.941,16.954,157.678s-4.9,27.346-14.285,46.531S72.575,510.44,72.575,510.44s14.285,19.591,60.816,23.673l17.959-45.307,4.08,49.389s57.672,8.764,79.443,1.374c0,0,13.72-199.561,10.223-234.583-6.354-63.617-41.354-99.965-41.354-99.965s-17.853,1.984-30.8-5.222C150.206,187.145,145.418,172.981,145.418,172.981Z" transform="translate(114.236 141.955)" fill="#def1f8"/>
      <path id="Path_13741" data-name="Path 13741" d="M238,371.537l-47.907-38.13-48.83-63.492L128.613,203.58,91.392,192.192c-8.858,13.626-15.992,34.541-11.6,64.266.624,4.233,1.275,8.762,1.935,13.484,5.433,22.8,12.33,48.157,18.838,64.042,0,0,2.772,1.136,8.535,0l12.567,29.274L96.725,405.843a81.535,81.535,0,0,1,.023,8.293c-1.042,14.254-3.877,24.083-10.492,38.537,17.143,3.722,73.934-27.778,87.7-36.6a33.476,33.476,0,0,0,4.076,11.718c3.365,5.681.242,13.106,3.728,17.092s-32.642,66.659-32.642,66.659l.686,8.3s57.672,8.764,79.443,1.374C229.252,521.223,234.867,439.553,238,371.537Z" transform="translate(119.857 160.301)" fill="#90c8ee" opacity="0.37"/>
      <path id="Path_13742" data-name="Path 13742" d="M212.8,162.119s13.671-3.415,24.492,7.136c12.942,12.623,17.347,48.9-10.885,63.549,0,0-14.426-18.561-17.878-35.606S212.8,162.119,212.8,162.119Z" transform="translate(243.221 131.078)" fill="#3f292d"/>
      <path id="Path_13743" data-name="Path 13743" d="M311.65,355.72l13.587,99.04H108.857s6.455-54.88,33.63-100.4Z" transform="translate(148.886 315.169)" fill="#47b"/>
      <path id="Path_13744" data-name="Path 13744" d="M131.3,442.289s5.425-48.988,23.366-74.872h7.425s-18.035,23.434-24.484,74.872Z" transform="translate(170.32 327.639)" fill="#35679e"/>
      <path id="Path_13745" data-name="Path 13745" d="M299.519,355.72l-169.163-1.361c-3.218,5.39-6.135,10.911-8.8,16.455.016.266,1.472,25.794,44.021,36.678,42.771,10.942,76.09,1.99,101.953-21.384,0,0,16.154,19.276,38.666,18.3Z" transform="translate(161.017 315.169)" fill="#35679e"/>
      <path id="Path_13746" data-name="Path 13746" d="M193.818,248.551c-11.566,8.7-80.671,63.086-99.034,80.8s-23.7,38.744-16.692,48.759,15.024,11.016,31.716,4.006,82.641-45.5,82.641-45.5,4.16-6.25,6.5-32.959S193.818,248.551,193.818,248.551Z" transform="translate(116.67 214.124)" fill="#c17a61"/>
      <path id="Path_13747" data-name="Path 13747" d="M175.4,291.372a143.113,143.113,0,0,0-.027-23c-11.29-2.145-26.42-5-37.213-6.956-12.293,9.771-26.162,20.924-38.39,31.016,3.763,13.038,15.274,36.463,24.009,39.637,6.084,2.211,25-.532,35.925-2.4,5.638-3.255,9.2-5.333,9.2-5.333S173.069,318.081,175.4,291.372Z" transform="translate(140.212 226.408)" fill="#aa6552"/>
      <path id="Path_13748" data-name="Path 13748" d="M251.33,315.887c-13.331-1.9-17.949-3.67-18.756-5.454s.327-18.735,3.558-23.986a35.739,35.739,0,0,0,17.472,2.889c9.29-1.044,13.077-7.1,18.328-25.256s5.656-61.825,2.827-74.751-37.567-36.959-74.732-21.71S156.8,237.8,162.863,254.77s21.006,28.277,21.006,33.528.811,15.452-5.247,18.449-23.03,6.661-23.03,6.661,1.212,12.885,44.435,17.114S251.33,315.887,251.33,315.887Z" transform="translate(193.518 132.153)" fill="#c17a61"/>
      <path id="Path_13749" data-name="Path 13749" d="M271.04,241.538s-15.937,11-43.868,7.961-25.982-11.525-25.982-11.525-18.924,2.938-26.23,4.944c-14.291,3.924-22.482,6.741-26.609,15.734-2.745,5.982-7.732,53.084-3.392,76.943l4.667,25.644s7.857,28.488,6.015,42.41-32.9,59.711-32.9,59.711-2.019,37.454,58.573,43.919,89.679-35.55,89.679-35.55c8.885,30.3,37.616,25.46,37.616,25.46-6.412-18.168-9.339-73.126-7.03-92.227s25.045-140.183,17.876-146.31c-13.925-11.9-35.086-15.212-48.417-17.114" transform="translate(162.139 204.023)" fill="#fcb000"/>
      <path id="Path_13750" data-name="Path 13750" d="M300.455,258.982l-100.2,20.039-66.626,29.864c.242,2.358.542,4.592.915,6.647l2.729,14.993c9.941-2.481,34.232-9.808,58.906-15.624,33.821-7.97,73.551-18.508,90.8-22.7l21.4-19.476c.458-3.853.854-7.5,1.173-10.883Z" transform="translate(172.548 224.085)" fill="#dd9845"/>
      <path id="Path_13751" data-name="Path 13751" d="M236.557,351.488l-54.034-10.3-23.219-28.8-11.04-20.512c-4.107,4.477-4.039,11.906-2.289,18.111s8.18,18.479,8.18,18.479l-12.635,16.049a44.3,44.3,0,0,1-.207,7.662c-.336,2.545-1.656,6.156-3.574,10.356,3.406,2.354,11.417,7.271,20.961,8.9,12.723,2.174,42.271,6.717,72.939,18.23s41.878,12.221,47.029,10.5c2.309-.77,5.535-4.057,8.4-7.45-.829-15.871-.815-30.93.188-39.225.145-1.187.366-2.766.655-4.686l-.151-.948Z" transform="translate(176.468 255.497)" fill="#dd9845"/>
      <path id="Path_13752" data-name="Path 13752" d="M244.377,330.853c-7.918-.448-41.383-1.793-46.314-2.539s-7.32-2.987-8.813-6.573-3.437-9.413-9.114-13.3-12.1-6.573-14.49-10.008-3.585-10.162-8.516-8.068-2.989,11.2-1.2,15.239,7.171,11.5,7.621,13.145-1.644,2.094-5.677.9-16.434-8.066-16.434-8.066l-1.2-6.275a7.372,7.372,0,0,0-7.468,4.184,14.716,14.716,0,0,0,0,12.848c1.494,2.989-.3,6.723,2.538,11.206s4.483,4.929,5.081,7.918,2.54,9.757,8.813,13.843,17.331,5.28,29.732,7.222,58.843,16.332,58.843,16.332,3.892-4.782,6.592-17.526C248.113,343.7,244.377,330.853,244.377,330.853Z" transform="translate(170.32 253.68)" fill="#ffdbc2"/>
      <path id="Path_13753" data-name="Path 13753" d="M279.236,204.933c-2.137,8.033-8.266,14.962-15.194,20.291s-7.73,8.8-9.6,16.258-5.863,12.26-9.6,11.726-2.131-7.972-4.8-13.181-7.462-12.67-17.589-8.94-8.7,23.986-2.485,30.648,10.747,6.663,14.211,5.063,5.329,1.065,4.53,5.329-2.086,17.5-12.215,24.957-35.422,4.5-39.174,1.84-12.8-8.238-21.063-17.833-13.794-20.359-14.629-35.27c-.96-17.143,2.152-37.688,7.888-43.021l34.82-39.139s9.46-15.724,36.378-13.857,35.71,23.718,35.71,23.718S287.224,191.2,279.236,204.933Z" transform="translate(189.58 119.674)" fill="#3f292d"/>
      <path id="Path_13754" data-name="Path 13754" d="M201.267,154.672c12.119,11.28,10.43,32.793-3.771,48.048s-35.538,18.479-47.657,7.2-10.428-32.793,3.773-48.05S189.15,143.389,201.267,154.672Z" transform="translate(180.298 118.038)" fill="#3f292d"/>
      <path id="Path_13755" data-name="Path 13755" d="M395,273.248c-15.286-2.407-28.169-2.588-43.51-5.173s-22.6-4.113-21.073-18.635,3.058-24.074,3.058-24.074l-49.3-2.676S281.88,246,280.735,251.352s-1.529,5.349-12.995,7.261-35.241,6.573-35.241,6.573,3.142,12.917,65.815,24.381S395,273.248,395,273.248Z" transform="translate(266.963 189.427)" fill="#ffdbc2"/>
      <path id="Path_13756" data-name="Path 13756" d="M392.915,249.663s36.3,4.344,48.435,6.037,22,5.32,32.232,30.169c0,0-25.911,72.669-23.91,84.141,2.878,16.483-3.56,62.921-5.57,73.641s1.675,35.176,9.044,70.35,10.792,48.953,10.792,48.953H205.252s19.094-35.89,44.889-68.718,44.554-61.641,47.569-71.019-12.393-62.309-12.393-62.309-42.21,63.314-47.235,70.35-7.7,6.362-21.1,3.015-29.481-8.71-29.481-8.71-6.029-11.153-2.344-27.352,8.936-20.653,8.936-20.653,6.807.1,9.49.1,7.368-.334,11.388-9.714,32.16-79.728,39.864-96.144,12.815-25.327,29.188-28.074a195.594,195.594,0,0,1,30.076-2.661s8.85,13.5,34.553,16.176S392.915,249.663,392.915,249.663Z" transform="translate(220.608 206.974)" fill="#3cb28e"/>
      <path id="Path_13757" data-name="Path 13757" d="M407.511,349.887h0l-20.5,30.549c2.878,16.389,5.755,38.945-23.839,55s-141.4,23.593-141.4,23.593H427.827s-3.421-13.781-10.792-48.953C411.448,383.405,407.986,362.917,407.511,349.887Z" transform="translate(256.72 310.898)" fill="#349977"/>
      <path id="Path_13758" data-name="Path 13758" d="M427.6,337.845l-22.044,7.31-50.4-25.139s-49.993-62.276-50.564-63.13-22.566-8.334-22.566-8.334l-53.989,16-.049.1c-2.909,6.2-9.566,22.113-15.906,37.512,6.612-1.621,26.748-4.08,35.512-4.714,11.847-.858,25.29-10.864,25.29-10.864s42.564,64.567,59.387,81.709,28.027,31.993,44.024,32.85,27.53-19.161,40.85-30.281l5.926-6.379q-.106-.853-.24-1.623c-.633-3.627,1.529-13.38,4.776-25.014Z" transform="translate(247.458 214.124)" fill="#349977"/>
      <path id="Path_13759" data-name="Path 13759" d="M304.915,383.475l7.282,17.431,18.1,22.862h0c-2.148-14.332-2.839-24.815-1.7-30.885,1.826-9.742,7.308-48.978,6.133-68.425l-.16-.933-14.721-29.3s-2.559,30.271-5.65,51.015C312,360,304.915,383.475,304.915,383.475Z" transform="translate(336.119 257.743)" fill="#349977"/>
      <path id="Path_13760" data-name="Path 13760" d="M368.068,358.656,248.116,340.725c-4.457,7.56-10.93,17.4-18.907,28.607,10.915,1.613,56.511,8.4,91.462,14.49,39.982,6.964,56.239,12.279,68.518,9.159s10.084-9.362,13.4-13.618v0a192.681,192.681,0,0,1-2.182-20.725C392.787,359.43,368.068,358.656,368.068,358.656Z" transform="translate(263.821 302.149)" fill="#349977"/>
      <path id="Path_13761" data-name="Path 13761" d="M358.37,195.008c5.683,16.7,9.593,54.046,4.262,73.214s-11.37,22.367-19.186,22.367-34.811-4.489-34.811-4.489L271.9,284.107s.837-8.442-5.558-13.059-32.689-35.89-14.924-76.039,61.827-43.35,81.369-28.427S358.37,195.008,358.37,195.008Z" transform="translate(279.237 128.01)" fill="#ffdbc2"/>
      <path id="Path_13762" data-name="Path 13762" d="M307.85,232.969c3.4,0,6.461-.61,9.274-2.868-5.986.368-13.542-1.871-23.808-11.386l-10.266,3.757L282.625,230C291.184,231.3,303.082,232.969,307.85,232.969Z" transform="translate(314.833 185.63)" fill="#f2c5a7"/>
      <path id="Path_13763" data-name="Path 13763" d="M368.476,198.853c.031-8.336-19.159-29.253-19.159-29.253s-15.153-14.868-40.056-15.239-46.3,12.418-53.8,43.755c-7.431,31.026-10.878,29.352-16.443,40.742-5.147,10.535-11.877,41.188,21.945,60.556,36.232,20.75,71.3,12.428,79.842,8.872,8.516-3.546,10.6-9.445,4.731-18.926-4.788-7.728-6.485-17.738-6.786-23.5-.3-5.685.53-8.393-2.352-7.382-2.166.759-7.45.88-11.9-6.358-4.97-8.094-2.229-25.276,5.949-26.764s12.266,4.461,13.382,11.943-1.116,10.36,2.974,11.1,7.8-2.229,13.751-11.1S369.1,211.6,368.476,198.853Z" transform="translate(269.132 124.165)" fill="#c2371b"/>
      <path id="Path_13776" data-name="Path 13776" d="M714.232,362.722c3.859,9.73,10.41,34.945,10.4,57.694-.008,15.575-1.869,54.931-1.869,54.931H547.727L540.1,389.987s12.612-40.582,54.658-51.172S698.224,329.011,714.232,362.722Z" transform="translate(560.718 294.581)" fill="#5ea4dd"/>
      <path id="Path_13777" data-name="Path 13777" d="M714.232,362.722c-16.008-33.712-77.429-34.5-119.475-23.908S540.1,389.987,540.1,389.987l1.245,13.947c34.764,20.426,68,4.77,68,4.77l-1.417-36.259,17.62,34.42c57.3-.358,80.135-20.611,92.158-33.413A112.607,112.607,0,0,0,714.232,362.722Z" transform="translate(560.718 294.581)" fill="#518ecc"/>
      <path id="Path_13778" data-name="Path 13778" d="M576.9,119.977c-7.515,4.1-18.518,5.517-26.009,4.532s-11.483-6.768-16.215-2.43c-5.81,5.327-16.754,38.634,5.793,53.588C569.144,194.681,576.9,119.977,576.9,119.977Z" transform="translate(548.073 91.337)" fill="#5b343c"/>
      <path id="Path_13779" data-name="Path 13779" d="M536.643,155.784c-3.755,13.181-3.972,30.1,0,54.095s11.568,46.12,18.746,49.2c5.05,2.162,14.51,2.459,21.829,1.646s9.691-1.484,11.149,10.647,47.827-1.7,53.928-11.053c0,0-5.695-21.964-4.068-28.471s9.763-15.863,12.2-35.792-.407-55.723-27.659-67.926-59.49-1.91-71.991,7.321C538.684,144.38,536.643,155.784,536.643,155.784Z" transform="translate(554.648 93.791)" fill="#e0a375"/>
      <path id="Path_13780" data-name="Path 13780" d="M585.918,231.184c-.409,3.191,4.338,11.138,6.835,16.486s7.9,10.641,13.961,10.981,22.7.006,29.89-7.136c3.982-3.576,3.982-10.706,9.687-23.54s9.984-35.178,7.132-52.708-4.053-35.716-20.922-35.358c0,0-4.749-19.255-22.934-22.819s-32.265,1.74-45.28,8.557c-13.19,6.907-27.763,17.3-27.976,30.484a14.813,14.813,0,0,0,10.506,9.091c6.059,1.339,3.361,5.14,3.669,9.173.534,6.983,1.593,11.417,6.77,15.267,4.866,3.617,7.038,3.984,7.03,11.929-.012,10.713.358,13.19,3.564,13.9s6.776-2.139,10.7-12.479,11.409-11.5,17.472-4.858,4.3,25.206-.017,30.24C590.766,234.511,586.516,226.549,585.918,231.184Z" transform="translate(557.1 87.488)" fill="#5b343c"/>
      <path id="Path_13781" data-name="Path 13781" d="M458.5,375.394c-2.936,12.969-7.1,66.546-7.644,79.554h203.96s-5.114-38.062-18.567-60.714c0,0-42.32-33.857-88.192-39.317S458.5,375.394,458.5,375.394Z" transform="translate(475.494 314.98)" fill="#08668d"/>
      <path id="Path_13782" data-name="Path 13782" d="M456.892,374.425c-1.347,5.949-2.95,20.447-4.346,35.651h0s7.032,2.051,16.127-6.491,9.132-12.9,11.273-11.664,5.648,11.095,18.224,23.872c9.572,9.722,50.525,31.919,95.077,23.35,32.558-6.262,44.515-22.353,48.6-30.568a100.327,100.327,0,0,0-7.2-15.311,224.861,224.861,0,0,0-33.557-21.2l-30.7,5.877-59.217-22.764A176.727,176.727,0,0,0,456.892,374.425Z" transform="translate(477.105 315.949)" fill="#0a5c75"/>
      <path id="Path_13783" data-name="Path 13783" d="M562.495,368.058s7.435,44.03,10.074,87.75H328.723s7.781-69.414,12.747-102.547Z" transform="translate(358.855 314.121)" fill="#47b"/>
      <path id="Path_13784" data-name="Path 13784" d="M333.24,381.923s21.083,58.014,116.449,53.948,111.018-51.336,111.018-51.336l-2.526-16.477-221.025-14.8Z" transform="translate(363.17 314.121)" fill="#35679e"/>
      <path id="Path_13785" data-name="Path 13785" d="M413.144,119.218c-16.885,0-48.38,9.74-48.38,56.5,0,0-3.572-6.17-8.117-3.572s-2.921,17.532,0,26.3,9.329,10.608,13.225,10.283c0,0,4.674,14.121,8.571,20.289s13.57,15.6,13.57,15.6l-.3,26.236h59.42V241.3c0-9.74,14.115-32.144,14.115-32.144s6.432,2.463,10.848-5.668c5.034-9.274,7.325-27.741,2.688-31.348-7.28-5.668-10.1,6.493-10.1,6.493s-3.269-36.689-22.75-45.782S413.144,119.218,413.144,119.218Z" transform="translate(382.817 90.612)" fill="#f8c6a3"/>
      <path id="Path_13786" data-name="Path 13786" d="M361.107,193.287c-1.046-9.413-4.907-28.062-3.151-45.328s9.071-29.849,14.34-31.02,5.56,4.389,11.413,5.56a16.033,16.033,0,0,1,2.633-13.753c4.975-6.731,9.095,1.494,18.729,6.438,11.726,6.019,17.116,3.187,25.626,8.455,10.051,6.217,10.33,13.554,10.33,13.554s5.542-2.256,12.485,1.695c8.713,4.956,15.532,22.025,12.715,53.573-2.5,28.017-9.4,50.441-18.617,61.269s-45.348,10.017-59.121,3.312c0,0-11.515-3.4-19.736-29.163A180.255,180.255,0,0,1,361.107,193.287Z" transform="translate(386.341 78.185)" fill="#191614"/>
      <path id="Path_13787" data-name="Path 13787" d="M393.2,204.859c-6.373,3.527-19.437,9.988-34.977,12.434s-24.738,3.49-31.049,11.572c0,0,22.588,25.4,26.51,71.541,2.831,33.3-6.635,49.764-6.635,49.764s4.42,18.334,12.774,32.128S350.364,445.158,346,461.746s-9.183,39.87-9.183,39.87c1.572,6.287,31.358,63.848,112.379,63.848s115.767-49.064,117.336-55.7-8.207-44.525-14.142-75.953-10.129-58.147-5.063-81.2,13.968-54.3,16.064-81.543-2.97-52.556-6.809-55.7-8.731-2.62-22.525-5.413-22.031-5.695-28.826-8.7c0,0-4-2.827-24.779-.733s-35.97,7.509-54.478,3.144S398.727,201.8,393.2,204.859Z" transform="translate(357.374 167.525)" fill="#213f98"/>
      <path id="Path_13788" data-name="Path 13788" d="M446.644,211.443a35.681,35.681,0,0,0-2.129-3.695A9.684,9.684,0,0,1,446.644,211.443Z" transform="translate(469.437 175.157)" fill="#def1f8"/>
      <path id="Path_13789" data-name="Path 13789" d="M545.036,395.571c-1.058-5.6-2.057-11.05-2.962-16.359l0-.012H378.821L356.2,323.557c11.828-33.528,8.383-67.973,0-83.76l-13.167,1.22a152.638,152.638,0,0,1,3.3,21.149c2.831,33.3-6.635,49.764-6.635,49.764s4.42,18.334,12.774,32.128-9.456,62.861-13.822,79.449c-1.609,6.115-2.884,11.417-3.775,16,6.111,3.89,24.105-3.427,24.105-3.427s115.831,42.713,128.234,39.5c10.34-2.68,49.4-44.943,62.1-58.912C547.809,409.586,546.331,402.423,545.036,395.571Z" transform="translate(364.728 205.763)" fill="#001a3a" opacity="0.37"/>
      <path id="Path_13790" data-name="Path 13790" d="M566,309.213,508.527,371.29s-13.519,15.179-18.035,18.725-5.482,8.062-29.022,1.935-122.075-39.856-122.075-39.856-6.909-8.453-2.072-18.963,11.055-11.791,11.055-11.791l113.737,25.143,8.694-9.769Z" transform="translate(365.427 272.055)" fill="#ffdbc2"/>
      <g id="Group_1690" data-name="Group 1690" transform="translate(654.931 517.694)">
        <path id="Path_13791" data-name="Path 13791" d="M361.514,276.694s22.744,48.478,25.827,54.114,3.523,6.076,14.535,5.2,137.42-11.45,137.42-11.45l3.234,31.784s-160.8,34.191-173.75,37.125c-8.758,1.984-12.846-.9-18.572-10.315s-38.185-74.014-38.185-74.014Z" transform="translate(-312.023 -276.694)" fill="#ffdbc2"/>
        <path id="Path_13792" data-name="Path 13792" d="M409.546,335.375h0c-3.767.311-6.442.53-7.669.63-11.012.88-11.452.442-14.535-5.2s-25.827-54.114-25.827-54.114l-49.491,32.441s32.459,64.6,38.185,74.014,9.814,12.3,18.572,10.315c3.626-.823,18.85-4.1,38.885-8.381C416.343,369.689,412.179,344.7,409.546,335.375Z" transform="translate(-312.023 -276.694)" fill="#3cb28e"/>
      </g>
      <g id="Group_1691" data-name="Group 1691" transform="translate(463.719 396.233)">
        <path id="Path_13793" data-name="Path 13793" d="M368.946,327.3s-66.966-60.267-78.352-73.431-15.656-22.84-25.616-26.824-9.394-.854-15.656,0-10.248-.285-15.372,3.7-7.969,3.415-11.669,6.545-8.823,12.664-7.971,16.578,1.423,17.579,20.78,19.571,27.325,6.262,27.325,6.262l72.73,100.414Z" transform="translate(-214.216 -204.538)" fill="#f8c6a3"/>
        <path id="Path_13794" data-name="Path 13794" d="M246.038,230.972c2.143,3.5,4.346,8.025,1.062,11.746s-14.127,15.37-14.127,15.37-10.5,5.177-8.809-1.779S246.038,230.972,246.038,230.972Z" transform="translate(-204.892 -198.897)" fill="#eab18b"/>
        <path id="Path_13795" data-name="Path 13795" d="M263.016,241.065c3.052,10.907,3.2,25.681-.18,32.486s-12.586,13.759-12.586,13.759l-5.933-8.191Z" transform="translate(-185.47 -189.258)" fill="#eab18b"/>
        <path id="Path_13796" data-name="Path 13796" d="M377.11,214.721c-8.541,9.839-14.707,22.76-25.573,46.842s-40.525,75.762-40.525,75.762l-12.039-11.744s-24.668,28.191-24.082,61.668c0,0,20.262,25.548,27.9,31.714s15.564,7.05,26.723-3.523,67.473-79.414,67.473-79.414,15.341-8.977,18.864-40.693S400.04,211.343,377.11,214.721Z" transform="translate(-156.281 -214.565)" fill="#213f98"/>
        <path id="Path_13797" data-name="Path 13797" d="M312.712,283.766c-5.106,4.549-26.645,35.364-21.472,67.1l2.457,2.885s-2.317,1.988-5.675-1.648-15.106-15.947-17.063-19.583-.841-19.863,7.273-39.164,18.14-28.59,22.895-24.756a81.359,81.359,0,0,1,10.115,9.37c2.461,2.6,4.987,5.4,4.313,8.573Z" transform="translate(-160.825 -163.779)" fill="#bce3f6"/>
      </g>
      <path id="Path_13798" data-name="Path 13798" d="M525.171,273.711c-10.792-5.808-29.458-8.545-43.6,1.754-1.769,1.286-4.131,3.192-7.648,8.35-18.176,26.66-69.158,91.74-69.158,91.74s2.751,23.182,37.718,34.576l57.471-62.077a342.026,342.026,0,0,1,6.964,39.289c1.963,18.858-9.431,98.1-9.431,98.1s8.645.127,16.5-9.3,9.011-14.928,11.185-14.928,4.469,14.6,25.761,29.931c16.913,12.178,65.031,28.7,95.235,19.12,34.6-10.977,34.709-26.989,36.674-34.453a158.615,158.615,0,0,0-16.019-22.457c-9.822-11.787-11.787-17.145-11.787-19.18s3.929-11.071,2.356-14.608-9.734-11-8.01-16.5,15.478-49.111,19.4-74.258,0-57.363,0-57.363Z" transform="translate(431.473 233.215)" fill="#b2def2"/>
      <path id="Path_13799" data-name="Path 13799" d="M447.875,279.841c11.392-3.214,37.387,6.674,43.772,12.9s9.257,34.416,41.045,45.919,83.449,3.814,83.449,3.814l-28.269-67.686-97.136-14.43Z" transform="translate(472.645 225.404)" fill="#b2def2"/>
      <path id="Path_13800" data-name="Path 13800" d="M655.254,346.259c2.876-11,5.488-22.181,6.876-31.063a175.78,175.78,0,0,0,1.744-27.266c-13.183,2.62-129.6,25.724-130.415,24.916-.862-.854-45.233-25.593-45.233-25.593l-29.862-4.465c-13.661,18.829-33.493,44.673-46.63,61.645a169.908,169.908,0,0,0,22.75,11.222c11.74,4.835,24.349,5.476,34.873,4.653L493.3,334.449s2.28,9.325,4.366,21.188c11.951-.078,46.75-.487,82.862-2.637C618.875,350.716,647.868,347.2,655.254,346.259Z" transform="translate(438.129 246.82)" fill="#b2def2"/>
      <path id="Path_13801" data-name="Path 13801" d="M585.32,204.675c11.675-4.287,46.859-14.2,65.443-11.97s44.353,11.894,54.759,23.044,9.664,48.812,9.664,61.7-5.922,42.259-10.518,55.571-5.836,43.045-5.093,67.328,15.857,83,18.832,89.943-11.2,18.072-32.8,26.543c-26.84,10.524-68.043,13.349-68.043,13.349l-13.628-37.911-2.725,39.151a100.434,100.434,0,0,1-33.947.991c-18.088-2.727-25.026-8.426-26.512-10.657s-6.246-65.66-2.256-100.967c0,0,30.255-19.7,34.963-43.485S585.32,204.675,585.32,204.675Z" transform="translate(557.697 160.483)" fill="#003684"/>
      <path id="Path_13802" data-name="Path 13802" d="M581.855,205.012c8.244,6.923,20.518,17.13,20.492,39.688-.021,17.8-9.331,53.842-9.331,53.842l-17.5-4.956Z" transform="translate(594.544 172.544)" fill="#00255a"/>
      <path id="Path_13803" data-name="Path 13803" d="M685.794,333.016c4.6-13.312,10.518-42.687,10.518-55.571,0-11.132.549-40.746-6.011-55.792l-8.328-10.076c-12.174-9.317-33.862-16.926-50.083-18.873-5.757-.69-13.112-.213-20.866.9,3.167,1.126,11.92,8.332,14.492,13.738s10.811,9.781,21.108,7.464,9.267,1.234,14.93,17.22S674.94,274.8,674.94,274.8l-26.516,10.277s-58.8,29.9-89.259,45.225c-.823,11.448-1.658,21.841-2.465,30.162,19.724-4.5,47.323-10.553,55.174-11.034,12.612-.772,33.72,2.061,44.273,3.863,5.955,1.015,17.808-4.113,27.008-8.778A70.549,70.549,0,0,1,685.794,333.016Z" transform="translate(576.571 160.483)" fill="#00255a"/>
      <path id="Path_13804" data-name="Path 13804" d="M620.743,291.017V255.006l-42.3,5.552c-1.791,26.261-3.675,48.842-5.276,56.937C568.454,341.282,538.2,360.98,538.2,360.98c-.407,3.593-.717,7.488-.954,11.568,9.443.063,26.289-.029,34.994-1.3,12.508-1.832,19.829-5.492,27.151-28S614.258,292.237,620.743,291.017Z" transform="translate(557.992 220.288)" fill="#00255a"/>
      <path id="Path_13805" data-name="Path 13805" d="M648.445,278.894,522.069,298.11c-8,1.1-20.854-4.016-30.985-8.848s-11.607-6.438-24.027-6.522-23.951-5.112-26.316-1.267,4.045,11.534,12.715,13.6,14.193,3.189,14.193,3.189-9.92-.014-19.216,0-13.677,1.337-16.465,4.393-2.258,8.762-4.782,10.358-5.841,4.381-5.841,8.5-6.774,7.171-6.905,10.889-1.277,4.665,1.089,7.976,20.688,12.606,36.355,13.669,30.027-2.489,39.2-4.811c6.932-1.756,10.731-3.138,26.259-3.8,11.853-.5,77.195-3.572,77.195-3.572Z" transform="translate(440.34 243.101)" fill="#e0a375"/>
      <path id="Path_13806" data-name="Path 13806" d="M633.743,201.166c-13.171-6.772-37.565-3.1-45.438,26.959S560.278,355.88,560.278,355.88l-53.907,8.2s7.515,32.232,0,54.773c0,0,64.691-3.431,77.247-3.695s27.585-2.053,36.173-24.236S653.5,281.078,657.756,267.482,668.092,218.824,633.743,201.166Z" transform="translate(528.508 166.115)" fill="#003684"/>
      <path id="Path_13807" data-name="Path 13807" d="M511.463,174.391c-20.576,5.37-39.5,22.236-44.556,49.221s-3.11,39.039,6.61,61.981S494.424,323.7,490.236,347.8s3.578,37.755,21.227,54.884c25.153,24.412,88.244,30.357,119.8,0,29.411-28.295,5.48-68.792,5.48-68.792s21.857-19.919,16.8-41.694-13.222-26.844-31.886-36.752-28.84-31.438-34.283-45.047S559.128,161.948,511.463,174.391Z" transform="translate(488.239 140.781)" fill="#2d2829"/>
      <path id="Path_13808" data-name="Path 13808" d="M478.059,263.182c-2.807,16.174-.213,27.638,7.114,38.609,13.486,5.572,39.984,15.155,46.1,16.275s45.274-8.43,49.166-8.143,8.6,2.254,19.1.045,14.359-8.189,14.359-8.189l18.119-5.218c3.689-13.593.721-27.114-2.508-36.2H478.45C478.331,261.3,478.228,262.222,478.059,263.182Z" transform="translate(500.414 225.404)" fill="#191614"/>
      <g id="Group_1692" data-name="Group 1692" transform="translate(903.212 382.641)">
        <path id="Path_13809" data-name="Path 13809" d="M537.888,266.216s91.042-11.278,99.542-12.872,14.074-7.967,23.636-14.076,17.792-8.764,24.434-7.7,17,1.591,20.183,1.857,1.593,6.375-3.718,7.969-15.669,3.187-14.872,4.248,18.59,1.064,21.511-.8,4.516-2.655,6.109-6.109,5.578-2.655,7.7.266,4.246,8.234,1.326,13.278-5.841,7.507-6.107,9.863.8,8.463,1.061,12.182-5.046,8.5-6.107,11.153-1.329,6.907-7.7,11.421-17.155,8.326-23,8.856-29.417-2.987-39.774-3.253-25.489,3.47-51.1,8.316c-19.872,3.761-55.792,13.057-55.792,13.057Z" transform="translate(-347.146 -184.955)" fill="#f8c6a3"/>
        <path id="Path_13810" data-name="Path 13810" d="M449.765,207.867s7.012-1.789,16.179,4.123S583.93,289.169,586,290.352s43.764-1.478,43.764-1.478,6.506,33.415-2.661,57.66c0,0-44.947,7.687-51.749,9.759s-11.532,1.183-24.838-3.845-56.184-21.29-69.195-23.36-30.65-2.3-40.312,13.781c0,0-4.987-21.356.839-55.223C448.022,251.753,449.765,207.867,449.765,207.867Z" transform="translate(-439.022 -207.613)" fill="#213f98"/>
        <path id="Path_13811" data-name="Path 13811" d="M628.622,336.224a66.367,66.367,0,0,1-2.5,8.387s-44.947,7.681-51.751,9.755-11.534,1.173-24.826-3.853c-13.315-5.022-56.188-21.288-69.209-23.36-12.979-2.072-30.615-2.309-40.292,13.742,5.122-22.8,13.529-52.9,15.562-79.253,1.722-22.385-1.388-43.459-4.692-52,2.972,5.669,8.291,17.81,10.967,36.206,3.812,26.392,2.972,37.027,2.544,45.962s10.653,17.771,37.456,27.661c26.8,9.914,61.621,23.46,67.838,25.143C575.466,346.155,621.88,337.492,628.622,336.224Z" transform="translate(-438.045 -205.679)" fill="#153175" opacity="0.37"/>
        <path id="Path_13812" data-name="Path 13812" d="M529.89,251.937c-.022-3.494,4.651-3.939,11.994-4.385s10.9-1.4,13.577,2.193,5.8,18.273,5.7,32.977c-.076,10.94-2.582,24.918-6.586,26.7s-7.791,2.225-12.463,2.893-11.31,2-12.221-1.672l3.1-.544s4.889-13.349,4.893-27.385c0-19.259-3.554-31.026-3.554-31.026Z" transform="translate(-352.245 -169.907)" fill="#213f98"/>
      </g>
      <path id="Path_13814" data-name="Path 13814" d="M413.846,373.088l-1.29,8.623s-7.519,2.039-11.771,1.529-6.025-1.771-4.944-3.126,7.9-4.85,11.315-7.773c7.46-6.381,7.425-15.636,2.324-13.708-2.946,1.11-5.427,3.189-9.226,3.894-4.19.776-7.929,1.932-14.8,3.273a35.511,35.511,0,0,0-14.836,6.741c-2.614,2.018-4.968,3.439-8.612,3.011-9.49-3.251-29.372-10.023-48.1-16.4h0c-19.917-6.786-38.519-13.122-41.876-14.287-7.493-2.608-9.36-5.022-10.449-10.272-2.182-10.551-8.406-32.224-8.406-32.224L217.62,355.51s.97,6.618,4.88,18.348,9.124,16.295,18.248,17.272c4.829.516,33.409,5.875,60.976,11.384h0s48.609,10.442,60.982,13.628,24.283,5.206,31.8,3.918,12.058-6.831,13.822-9.38,3.482-2.309,7.943-5.353,1.879-9.967,3.638-12.879c2.053-3.392,4.066-4.872,3.822-10.444S413.846,373.088,413.846,373.088Z" transform="translate(252.754 265.516)" fill="#c17a61"/>
      <path id="Path_13815" data-name="Path 13815" d="M152.967,222.3s22.7,54.716,24.662,58.994,6.119,3.8,33.039,2.854,83.967-3.329,91.574-5.7,9.984-7.132,13.787-13.789,7.132-11.884,23.294-17.114,25.425-11.423,27.1-8.293c.911,1.707,2.4,6.428-4.006,11.464s-15.54,11.644-14.281,13.22,37.358-6.117,42.49-10.387,3.193-6.794,3.193-6.794a6.49,6.49,0,0,1,6.88,3.017c2.518,4.092,2.946,18.088,1.945,24.467s-2.26,15.19-10.129,22.43-21.11,13.988-33.219,17.1c-9.74,2.5-23.466,1.071-41.09,5.161s-80.692,18.715-114.652,26.383c-30.627,6.915-63.617,14.41-72.9,11.263S111.14,333.491,97.92,296.352Z" transform="translate(138.44 189.057)" fill="#ffdbc2"/>
      <path id="Path_13816" data-name="Path 13816" d="M103.1,185.917c-12.105,5.218-29.475,22.342-16.639,74.874s22.819,75.828,22.819,75.828,49.442,8.555,77.49-36.13c-.475-2.852-14.737-42.779-27.573-72.733S130.67,174.031,103.1,185.917Z" transform="translate(123.181 151.325)" fill="#def1f8"/>
      <path id="Path_13817" data-name="Path 13817" d="M360.945,206.938s16.215,2.536,24.879,7.521,18.172,7.1,32.752,6.676,24.087-4.438,32.963-8.876,15.194-9.386,21.436-8.919c0,0-3.265-5.763-54.613-5.763S360.945,206.938,360.945,206.938Z" transform="translate(389.628 165.445)" fill="#153175" opacity="0.37"/>
      <path id="Path_13818" data-name="Path 13818" d="M415.022,196.912c-13.253.631-23.264-3.523-30.119-4.626s-14.576,2.758-23.958,22.9a64.679,64.679,0,0,1,19.865,1.932c10.485,2.758,21,6.277,36.152,5.472,18.494-.983,29.239-6.133,37.745-8.25a93.513,93.513,0,0,1,18.269-2.751s-15.007-26.912-28.652-22.06C434.277,193.1,426.611,196.359,415.022,196.912Z" transform="translate(389.628 157.198)" fill="#213f98"/>
      <path id="Path_13819" data-name="Path 13819" d="M377.723,353.137l62.992-24.713-10.989-2.43h-.538L348.382,343.27C356.783,346.113,366.992,349.554,377.723,353.137Z" transform="translate(377.63 288.081)" fill="#edc1a4"/>
      <path id="Path_13820" data-name="Path 13820" d="M112.924,171.694s9.654,16.588,24.113,24.338c16.422,8.8,31.039,7.108,31.039,7.108l6.135,7.871s-18.271,4.426-39.481-6.631c-19.925-10.385-26.973-25.952-26.973-25.952Z" transform="translate(147.835 140.726)" fill="#def1f8"/>
      <g id="Group_1693" data-name="Group 1693" transform="translate(408.105 514.665)">
        <path id="Path_13821" data-name="Path 13821" d="M230.24,360.238l8.854-1.607V347.265C236.439,351.29,233.476,355.636,230.24,360.238Z" transform="translate(-143.299 -206.271)" fill="#349977"/>
        <path id="Path_13822" data-name="Path 13822" d="M236.354,398.712c5.024-7.036,47.235-70.35,47.235-70.35s-8.6-24.766-6.463-53.217A139.31,139.31,0,0,0,270.694,329s-33.391,54.7-42.171,61.439-42.754,2.581-42.754,2.581,16.082,5.359,29.481,8.71S231.33,405.744,236.354,398.712Z" transform="translate(-185.769 -275.145)" fill="#349977"/>
      </g>
      <path id="Path_13823" data-name="Path 13823" d="M257.375,317.563,221.37,369.54l-3.75-14.031,35.551-53.144Z" transform="translate(252.754 265.517)" fill="#aa6552"/>
      <path id="Path_13824" data-name="Path 13824" d="M153.363,196.473s26.074.086,43.111-27.751c0,0-7.9,35.235-44.185,32.947C152.607,199.8,152.978,198.07,153.363,196.473Z" transform="translate(190.363 137.888)" fill="#2b1c1f"/>
      <path id="Path_13826" data-name="Path 13826" d="M569.55,444.945s-5.9-39.721-5.449-80.309h-4.475s-4.051,26.572,4.377,80.309Z" transform="translate(578.438 324.984)" fill="#518ecc"/>
      <path id="Path_13827" data-name="Path 13827" d="M154.991,383.824s-6.274,23.106-6.274,30.467,16.31,17.814,20.074,17.4,32.2-6.275,35.962-10.455,7.947-45.162,7.947-45.162-7.761,39.684-10.363,42.193-28.119,9.91-32.74,9.491-17.114-10.488-17.114-13.906S154.991,383.824,154.991,383.824Z" transform="translate(186.952 335.904)" fill="#35679e"/>
      <path id="Path_13828" data-name="Path 13828" d="M148.959,373.734c-6.2,13.775-11.48,32.373-13.546,35.358s-24.478,4.712-24.478,4.712l.993-4.322s14.391-1.308,18.019-2,4.547-3.781,6.614-8.664S148.959,373.734,148.959,373.734Z" transform="translate(150.869 333.672)" fill="#35679e"/>
      <path id="Path_13829" data-name="Path 13829" d="M78.46,451.946,103.1,357.3h3.642L83.185,451.946Z" transform="translate(119.857 317.982)" fill="#0b597f"/>
      <path id="Path_13830" data-name="Path 13830" d="M89.854,384.445c17.018,2.254,40.877-.954,49.577-28.9l.5,6.08s-3.189,15.233-16.5,21.986a50.529,50.529,0,0,1-34.824,3.935Z" transform="translate(129.55 316.301)" fill="#0b597f"/>
      <path id="Path_13833" data-name="Path 13833" d="M614.548,362.407c4.055,23.954,6.772,44.042,3.314,61.9s-4.446,23.593-4.446,23.593h3.015s3.407-18.078,5.136-27.215,1.235-23.962-4.074-59.148Z" transform="translate(630.734 322.026)" fill="#518ecc"/>
    </g>
  </g>
</svg>
